<svg xmlns="http://www.w3.org/2000/svg" width="23.75" height="13.75" viewBox="0 0 23.75 13.75"><defs><style>.cls-1 { fill: #feb517; fill-rule: evenodd; }</style></defs><path id="_000" data-name="0" class="cls-1" d="M1.215 12.062a4.052 4.052 0 0 0 3.506 1.683 4.574 4.574 0 0 0 1.942-.4 3.963 3.963 0 0 0 1.5-1.224 6.033 6.033 0 0 0 .966-2.052 10.825 10.825 0 0 0 .344-2.889 8.079 8.079 0 0 0-1.229-4.941 4.165 4.165 0 0 0-3.5-1.593 4.519 4.519 0 0 0-1.934.405 4 4 0 0 0-1.49 1.215 5.914 5.914 0 0 0-.967 2.043A10.75 10.75 0 0 0 .01 7.18a8.31 8.31 0 0 0 1.205 4.882zm5.293-1.395a1.945 1.945 0 0 1-1.768 1.1 2.054 2.054 0 0 1-2.017-1.638l4.374-4.014q.018.252.027.513t.009.549a7.377 7.377 0 0 1-.625 3.485zM2.961 3.728a1.922 1.922 0 0 1 1.758-1.107 2.016 2.016 0 0 1 2.018 1.548L2.381 8.183q-.02-.252-.027-.5t-.009-.513a7.365 7.365 0 0 1 .616-3.447zm9.164 2.937a2.363 2.363 0 0 0 2.044.981 2.674 2.674 0 0 0 1.132-.236 2.31 2.31 0 0 0 .874-.714 3.487 3.487 0 0 0 .564-1.2 6.3 6.3 0 0 0 .2-1.685 4.712 4.712 0 0 0-.716-2.88 2.43 2.43 0 0 0-2.044-.929 2.638 2.638 0 0 0-1.127.236 2.341 2.341 0 0 0-.869.709 3.452 3.452 0 0 0-.564 1.191 6.284 6.284 0 0 0-.2 1.673 4.852 4.852 0 0 0 .706 2.851zm3.086-.814a1.134 1.134 0 0 1-1.031.64 1.2 1.2 0 0 1-1.176-.955l2.55-2.34c.007.1.012.2.016.3s0 .209 0 .32a4.293 4.293 0 0 1-.359 2.03zm-2.068-4.045a1.122 1.122 0 0 1 1.025-.646 1.175 1.175 0 0 1 1.176.9l-2.54 2.34c-.007-.1-.012-.194-.015-.289s0-.194 0-.3a4.287 4.287 0 0 1 .354-2.01zm5.8 4.859a2.363 2.363 0 0 0 2.044.981 2.674 2.674 0 0 0 1.132-.236 2.31 2.31 0 0 0 .874-.714 3.487 3.487 0 0 0 .564-1.2 6.3 6.3 0 0 0 .2-1.685 4.712 4.712 0 0 0-.716-2.88 2.43 2.43 0 0 0-2.044-.929 2.638 2.638 0 0 0-1.127.236 2.341 2.341 0 0 0-.869.709 3.452 3.452 0 0 0-.564 1.191 6.284 6.284 0 0 0-.2 1.673 4.852 4.852 0 0 0 .709 2.851zm3.086-.814a1.134 1.134 0 0 1-1.031.64 1.2 1.2 0 0 1-1.176-.955l2.55-2.34c.007.1.012.2.016.3s0 .209 0 .32a4.293 4.293 0 0 1-.356 2.03zm-2.068-4.045a1.122 1.122 0 0 1 1.025-.646 1.175 1.175 0 0 1 1.176.9l-2.54 2.34c-.007-.1-.012-.194-.015-.289s0-.194 0-.3a4.287 4.287 0 0 1 .357-2.01z"/></svg>